<svg xmlns="http://www.w3.org/2000/svg" viewBox="0 0 240 240"><rect width="240" height="240" rx="16" fill="#fff"/><g fill="#111"><path d="M18 18h64v64H18zm12 12v40h40V30zM158 18h64v64h-64zm12 12v40h40V30zM18 158h64v64H18zm12 12v40h40v-40z"/><path d="M96 18h18v18H96zm28 6h14v34h-14zM96 52h18v26H96zm26 20h20v14h-20zm26 16h18v18h-18zm26 6h16v30h-16zM94 100h18v18H94zm24 18h18v18h-18zm26 0h14v36h-14zm22 24h28v16h-28zm-72 16h16v48H94zm26 12h18v16h-18zm24-10h18v18h-18zm4 34h34v14h-34zm46-26h18v42h-18z"/></g><rect x="92" y="92" width="56" height="56" rx="12" fill="#233b63"/><text x="120" y="119" text-anchor="middle" font-family="Arial" font-size="11" font-weight="700" fill="#fff">CARD</text><text x="120" y="134" text-anchor="middle" font-family="Arial" font-size="9" fill="#dbe6ff">TEST</text><text x="120" y="232" text-anchor="middle" font-family="Arial" font-size="9" fill="#777">MOCK QR · NOT FOR REAL PAYMENT</text></svg>